<!DOCTYPE svg PUBLIC "-//W3C//DTD SVG 1.1//EN" "http://www.w3.org/Graphics/SVG/1.1/DTD/svg11.dtd">
<!-- Uploaded to: SVG Repo, www.svgrepo.com, Transformed by: SVG Repo Mixer Tools -->
<svg fill="#d3e01f" version="1.1" id="Layer_1" xmlns="http://www.w3.org/2000/svg" xmlns:xlink="http://www.w3.org/1999/xlink" viewBox="0 0 496 496" xml:space="preserve" width="184px" height="184px" stroke="#d3e01f">
<g id="SVGRepo_bgCarrier" stroke-width="0"/>
<g id="SVGRepo_tracerCarrier" stroke-linecap="round" stroke-linejoin="round"/>
<g id="SVGRepo_iconCarrier"> <g> <g> <g> <path d="M320,144v-16h16v-20.216L178.48,0h-20.96L0,107.784V128h16v208h208v160h272V144H320z M162.48,16h11.048l140.312,96 H22.168L162.48,16z M224,320H112v-88c0-30.88,25.128-56,56-56s56,25.12,56,56V320z M224,186.848 C210.792,170.496,190.608,160,168,160c-39.704,0-72,32.304-72,72v88H32V128h272v16h-80V186.848z M480,480H240V240h240V480z M480,224H240v-64h240V224z"/> <path d="M352,368h-96v96h96V368z M336,448h-64v-64h64V448z"/> <path d="M464,368h-96v96h96V368z M448,448h-64v-64h64V448z"/> <path d="M352,256h-96v96h96V256z M336,336h-64v-64h64V336z"/> <path d="M464,256h-96v96h96V256z M448,336h-64v-64h64V336z"/> <polygon points="296,328 312,328 312,312 328,312 328,296 312,296 312,280 296,280 296,296 280,296 280,312 296,312 "/> <rect x="392" y="296" width="48" height="16"/> <polygon points="293.656,437.656 304,427.312 314.344,437.656 325.656,426.344 315.312,416 325.656,405.656 314.344,394.344 304,404.688 293.656,394.344 282.344,405.656 292.688,416 282.344,426.344 "/> <rect x="392" y="392" width="48" height="16"/> <rect x="392" y="424" width="48" height="16"/> </g> </g> </g> </g>
</svg>